<svg xmlns="http://www.w3.org/2000/svg">
      <symbol id="sprite-matrix" viewBox="0 0 16 16">
        <path fill-rule="evenodd" clip-rule="evenodd" d="M2 0C0.895431 0 0 0.895431 0 2V14C0 15.1046 0.895431 16 2 16H14C15.1046 16 16 15.1046 16 14V2C16 0.895431 15.1046 0 14 0H2ZM2.3165 13.7246V2.2755L3.14037 2.27588V2.00025H2V14.0002H3.14037V13.7246H2.3165ZM5.83812 6.4845V5.90438L4.73038 5.9055V10.1884H5.9045V7.70587C5.9045 7.49475 5.93375 7.32488 5.99412 7.19625C6.04451 7.08138 6.11998 6.97926 6.215 6.89738C6.299 6.82875 6.38863 6.78188 6.47862 6.75675C6.56862 6.73125 6.6425 6.71963 6.69913 6.71963C6.88663 6.71963 7.0295 6.75262 7.12512 6.81525C7.22016 6.87397 7.29298 6.96262 7.33212 7.06725C7.37657 7.17651 7.40109 7.29285 7.4045 7.41075C7.412 7.53375 7.41388 7.65863 7.41388 7.78575V10.1861H8.588V7.8015C8.58979 7.66996 8.60019 7.53868 8.61912 7.4085C8.63533 7.28637 8.67452 7.16842 8.73462 7.06088C8.7925 6.95878 8.875 6.87279 8.97463 6.81075C9.07625 6.7485 9.209 6.71738 9.37512 6.71738C9.53938 6.71738 9.67212 6.74438 9.76775 6.80137C9.86146 6.85178 9.93779 6.92928 9.98675 7.02375C10.0387 7.12652 10.0692 7.2388 10.0764 7.35375C10.0887 7.4889 10.0947 7.62454 10.0944 7.76025V10.1858H11.2677V7.32263C11.2677 7.04513 11.2288 6.8085 11.1526 6.6135C11.0743 6.41813 10.967 6.25988 10.8301 6.1365C10.6918 6.01538 10.5275 5.92725 10.3321 5.87288C10.1276 5.81501 9.91581 5.78673 9.70325 5.78888C9.40475 5.78888 9.14675 5.86125 8.92962 6.00375C8.71325 6.14625 8.53925 6.31238 8.41213 6.49988C8.29513 6.23625 8.12712 6.05063 7.9025 5.94525C7.67937 5.84175 7.4315 5.78888 7.16188 5.78888C6.881 5.78888 6.629 5.84925 6.41188 5.97038C6.18869 6.09653 5.99761 6.27247 5.8535 6.4845H5.83812ZM13.6835 2.27513V13.7242L12.8596 13.7239V13.9995H14V1.9995H12.8596V2.27513H13.6835Z"/>
      </symbol>
      <symbol id="sprite-mastodon" viewBox="0 0 448 512"><!--! Font Awesome Pro 6.1.1 by @fontawesome - https://fontawesome.com License - https://fontawesome.com/license (Commercial License) Copyright 2022 Fonticons, Inc. --><path d="M433 179.11c0-97.2-63.71-125.7-63.71-125.7-62.52-28.7-228.56-28.4-290.48 0 0 0-63.72 28.5-63.72 125.7 0 115.7-6.6 259.4 105.63 289.1 40.51 10.7 75.32 13 103.33 11.4 50.81-2.8 79.32-18.1 79.32-18.1l-1.7-36.9s-36.31 11.4-77.12 10.1c-40.41-1.4-83-4.4-89.63-54a102.54 102.54 0 0 1-.9-13.9c85.63 20.9 158.65 9.1 178.75 6.7 56.12-6.7 105-41.3 111.23-72.9 9.8-49.8 9-121.5 9-121.5zm-75.12 125.2h-46.63v-114.2c0-49.7-64-51.6-64 6.9v62.5h-46.33V197c0-58.5-64-56.6-64-6.9v114.2H90.19c0-122.1-5.2-147.9 18.41-175 25.9-28.9 79.82-30.8 103.83 6.1l11.6 19.5 11.6-19.5c24.11-37.1 78.12-34.8 103.83-6.1 23.71 27.3 18.4 53 18.4 175z"/></symbol>
      <symbol id="sprite-discord" viewBox="0 0 16 16">
        <path d="M13.545 2.907a13.227 13.227 0 0 0-3.257-1.011.05.05 0 0 0-.052.025c-.141.25-.297.577-.406.833a12.19 12.19 0 0 0-3.658 0 8.258 8.258 0 0 0-.412-.833.051.051 0 0 0-.052-.025c-1.125.194-2.22.534-3.257 1.011a.041.041 0 0 0-.021.018C.356 6.024-.213 9.047.066 12.032c.001.014.01.028.021.037a13.276 13.276 0 0 0 3.995 2.02.05.05 0 0 0 .056-.019c.308-.42.582-.863.818-1.329a.05.05 0 0 0-.01-.059.051.051 0 0 0-.018-.011 8.875 8.875 0 0 1-1.248-.595.05.05 0 0 1-.02-.066.051.051 0 0 1 .015-.019c.084-.063.168-.129.248-.195a.05.05 0 0 1 .051-.007c2.619 1.196 5.454 1.196 8.041 0a.052.052 0 0 1 .053.007c.08.066.164.132.248.195a.051.051 0 0 1-.004.085 8.254 8.254 0 0 1-1.249.594.05.05 0 0 0-.03.03.052.052 0 0 0 .003.041c.24.465.515.909.817 1.329a.05.05 0 0 0 .056.019 13.235 13.235 0 0 0 4.001-2.02.049.049 0 0 0 .021-.037c.334-3.451-.559-6.449-2.366-9.106a.034.034 0 0 0-.02-.019Zm-8.198 7.307c-.789 0-1.438-.724-1.438-1.612 0-.889.637-1.613 1.438-1.613.807 0 1.45.73 1.438 1.613 0 .888-.637 1.612-1.438 1.612Zm5.316 0c-.788 0-1.438-.724-1.438-1.612 0-.889.637-1.613 1.438-1.613.807 0 1.451.73 1.438 1.613 0 .888-.631 1.612-1.438 1.612Z"/>
      </symbol>
      <symbol id="sprite-twitter" viewBox="0 0 16 16">
        <path d="M5.026 15c6.038 0 9.341-5.003 9.341-9.334 0-.14 0-.282-.006-.422A6.685 6.685 0 0 0 16 3.542a6.658 6.658 0 0 1-1.889.518 3.301 3.301 0 0 0 1.447-1.817 6.533 6.533 0 0 1-2.087.793A3.286 3.286 0 0 0 7.875 6.03a9.325 9.325 0 0 1-6.767-3.429 3.289 3.289 0 0 0 1.018 4.382A3.323 3.323 0 0 1 .64 6.575v.045a3.288 3.288 0 0 0 2.632 3.218 3.203 3.203 0 0 1-.865.115 3.23 3.23 0 0 1-.614-.057 3.283 3.283 0 0 0 3.067 2.277A6.588 6.588 0 0 1 .78 13.58a6.32 6.32 0 0 1-.78-.045A9.344 9.344 0 0 0 5.026 15z"/>
      </symbol>
      <symbol id="sprite-copy" viewBox="0 0 512 512"><!--! Font Awesome Pro 6.1.1 by @fontawesome - https://fontawesome.com License - https://fontawesome.com/license (Commercial License) Copyright 2022 Fonticons, Inc. --><path d="M502.6 70.63l-61.25-61.25C435.4 3.371 427.2 0 418.7 0H255.1c-35.35 0-64 28.66-64 64l.0195 256C192 355.4 220.7 384 256 384h192c35.2 0 64-28.8 64-64V93.25C512 84.77 508.6 76.63 502.6 70.63zM464 320c0 8.836-7.164 16-16 16H255.1c-8.838 0-16-7.164-16-16L239.1 64.13c0-8.836 7.164-16 16-16h128L384 96c0 17.67 14.33 32 32 32h47.1V320zM272 448c0 8.836-7.164 16-16 16H63.1c-8.838 0-16-7.164-16-16L47.98 192.1c0-8.836 7.164-16 16-16H160V128H63.99c-35.35 0-64 28.65-64 64l.0098 256C.002 483.3 28.66 512 64 512h192c35.2 0 64-28.8 64-64v-32h-47.1L272 448z"/></symbol>
      <symbol id="sprite-open-source" viewBox="0 0 640 512"><!--! Font Awesome Pro 6.1.1 by @fontawesome - https://fontawesome.com License - https://fontawesome.com/license (Commercial License) Copyright 2022 Fonticons, Inc. --><path d="M184 88C184 118.9 158.9 144 128 144C97.07 144 72 118.9 72 88C72 57.07 97.07 32 128 32C158.9 32 184 57.07 184 88zM208.4 196.3C178.7 222.7 160 261.2 160 304C160 338.3 171.1 369.8 192 394.5V416C192 433.7 177.7 448 160 448H96C78.33 448 64 433.7 64 416V389.2C26.16 371.2 0 332.7 0 288C0 226.1 50.14 176 112 176H144C167.1 176 190.2 183.5 208.4 196.3V196.3zM64 245.7C54.04 256.9 48 271.8 48 288C48 304.2 54.04 319.1 64 330.3V245.7zM448 416V394.5C468 369.8 480 338.3 480 304C480 261.2 461.3 222.7 431.6 196.3C449.8 183.5 472 176 496 176H528C589.9 176 640 226.1 640 288C640 332.7 613.8 371.2 576 389.2V416C576 433.7 561.7 448 544 448H480C462.3 448 448 433.7 448 416zM576 330.3C585.1 319.1 592 304.2 592 288C592 271.8 585.1 256.9 576 245.7V330.3zM568 88C568 118.9 542.9 144 512 144C481.1 144 456 118.9 456 88C456 57.07 481.1 32 512 32C542.9 32 568 57.07 568 88zM256 96C256 60.65 284.7 32 320 32C355.3 32 384 60.65 384 96C384 131.3 355.3 160 320 160C284.7 160 256 131.3 256 96zM448 304C448 348.7 421.8 387.2 384 405.2V448C384 465.7 369.7 480 352 480H288C270.3 480 256 465.7 256 448V405.2C218.2 387.2 192 348.7 192 304C192 242.1 242.1 192 304 192H336C397.9 192 448 242.1 448 304zM256 346.3V261.7C246 272.9 240 287.8 240 304C240 320.2 246 335.1 256 346.3zM384 261.7V346.3C393.1 335 400 320.2 400 304C400 287.8 393.1 272.9 384 261.7z"/></symbol>
</svg>
